<svg width="1472" height="893" xmlns="http://www.w3.org/2000/svg" xmlns:xlink="http://www.w3.org/1999/xlink" overflow="hidden"><defs><clipPath id="clip0"><rect x="0" y="0" width="1472" height="893"/></clipPath></defs><g clip-path="url(#clip0)"><rect x="0" y="0" width="1472" height="893.167" fill="#FFFFFF"/><rect x="1026.5" y="63.5119" width="691" height="890.166" stroke="#172C51" stroke-width="3" stroke-miterlimit="8" fill="#DAE3F3"/><path d="M312.5 223.542 312.5 301.512" stroke="#4472C4" stroke-width="0.666667" stroke-miterlimit="8" fill="none" fill-rule="evenodd"/><path d="M302.5 659.623 302.5 636.619C302.5 623.914 309.887 613.615 319 613.615 328.113 613.615 335.5 623.914 335.5 636.619L335.5 659.623Z" stroke="#000000" stroke-width="1.33358" stroke-miterlimit="8" fill="#E7E6E6" fill-rule="evenodd"/><path d="M311.5 706.001 311.5 659.623" stroke="#000000" stroke-width="1.33358" stroke-miterlimit="8" fill="none" fill-rule="evenodd"/><path d="M330.5 706.001 330.5 659.623" stroke="#000000" stroke-width="1.33358" stroke-miterlimit="8" fill="none" fill-rule="evenodd"/><path d="M319.5 613.983 319.5 567.606" stroke="#000000" stroke-width="1.33358" stroke-miterlimit="8" fill="none" fill-rule="evenodd"/><path d="M0 0 23 0C35.7025-4.20134e-15 46 7.3873 46 16.5 46 25.6127 35.7025 33 23 33L0 33Z" stroke="#000000" stroke-width="1.33333" stroke-miterlimit="8" fill="#E7E6E6" fill-rule="evenodd" transform="matrix(-1 0 0 1.00019 774.5 325.561)"/><path d="M0 0 46.3688 0.000104987" stroke="#000000" stroke-width="1.33333" stroke-miterlimit="8" fill="none" fill-rule="evenodd" transform="matrix(-1 0 0 1.00019 820.869 334.562)"/><path d="M0 0 46.3688 0.000104987" stroke="#000000" stroke-width="1.33333" stroke-miterlimit="8" fill="none" fill-rule="evenodd" transform="matrix(-1 0 0 1.00019 820.869 352.566)"/><path d="M0 0 46.3688 0.000104987" stroke="#000000" stroke-width="1.33333" stroke-miterlimit="8" fill="none" fill-rule="evenodd" transform="matrix(-1 0 0 1.00019 728.869 341.564)"/><path d="M0 0 23.5 0C36.4787-4.20134e-15 47 7.3873 47 16.5 47 25.6127 36.4787 33 23.5 33L0 33Z" stroke="#000000" stroke-width="1.33333" stroke-miterlimit="8" fill="#E7E6E6" fill-rule="evenodd" transform="matrix(1.83697e-16 1.00019 1 -1.83731e-16 302.5 316.559)"/><path d="M0 0 46.3688 0.000104987" stroke="#000000" stroke-width="1.33333" stroke-miterlimit="8" fill="none" fill-rule="evenodd" transform="matrix(1.83697e-16 1.00019 1 -1.83731e-16 312.5 270.551)"/><path d="M0 0 46.3688 0.000104987" stroke="#000000" stroke-width="1.33333" stroke-miterlimit="8" fill="none" fill-rule="evenodd" transform="matrix(1.83697e-16 1.00019 1 -1.83731e-16 325.5 270.551)"/><path d="M0 0 46.3688 0.000104987" stroke="#000000" stroke-width="1.33333" stroke-miterlimit="8" fill="none" fill-rule="evenodd" transform="matrix(1.83697e-16 1.00019 1 -1.83731e-16 319.5 363.568)"/><path d="M655.5 366.568 655.5 412.061" stroke="#000000" stroke-width="1.33333" stroke-miterlimit="8" fill="none" fill-rule="evenodd"/><rect x="387.5" y="393.574" width="142" height="170.032" stroke="#172C51" stroke-width="1.33333" stroke-miterlimit="8" fill="none"/><text font-family="Calibri,Calibri_MSFontService,sans-serif" font-weight="400" font-size="28" transform="matrix(1 0 0 1.00019 412.486 492)">Reg File</text><path d="M344.5 428.58 387.904 428.58" stroke="#000000" stroke-width="1.33333" stroke-miterlimit="8" fill="none" fill-rule="evenodd"/><text font-family="Calibri,Calibri_MSFontService,sans-serif" font-weight="400" font-size="11" transform="matrix(1 0 0 1.00019 397.348 431)">WrData</text><path d="M214.5 356.567 249.5 365.318 249.5 432.831 214.5 441.582Z" stroke="#000000" stroke-width="1.33358" stroke-miterlimit="8" fill="#F2F2F2" fill-rule="evenodd"/><path d="M249.5 399.575 295.869 399.575" stroke="#000000" stroke-width="1.33333" stroke-miterlimit="8" fill="none" fill-rule="evenodd"/><path d="M232.5 341.564 232.5 361.568" stroke="#000000" stroke-width="1.33333" stroke-miterlimit="8" fill="none" fill-rule="evenodd"/><path d="M117.5 376.57 215.181 376.57" stroke="#000000" stroke-width="1.33333" stroke-miterlimit="8" fill="none" fill-rule="evenodd"/><path d="M147.5 420.579 214.577 420.579" stroke="#000000" stroke-width="1.33333" stroke-miterlimit="8" fill="none" fill-rule="evenodd"/><text font-family="Calibri,Calibri_MSFontService,sans-serif" font-weight="400" font-size="11" transform="matrix(1 0 0 1.00019 218.226 380)">0</text><text font-family="Calibri,Calibri_MSFontService,sans-serif" font-weight="400" font-size="11" transform="matrix(1 0 0 1.00019 218.226 423)">1</text><rect x="296.5" y="498.593" width="48" height="99.0185" stroke="#000000" stroke-width="1.33333" stroke-miterlimit="8" fill="#F2F2F2"/><path d="M344.5 540.601 387.904 540.601" stroke="#000000" stroke-width="1.33333" stroke-miterlimit="8" fill="none" fill-rule="evenodd"/><text font-family="Calibri,Calibri_MSFontService,sans-serif" font-weight="400" font-size="11" transform="matrix(1 0 0 1.00019 397.348 543)">address</text><path d="M214.5 505.594 249.5 514.346 249.5 581.859 214.5 590.61Z" stroke="#000000" stroke-width="1.33358" stroke-miterlimit="8" fill="#F2F2F2" fill-rule="evenodd"/><path d="M249.5 547.602 295.869 547.602" stroke="#000000" stroke-width="1.33333" stroke-miterlimit="8" fill="none" fill-rule="evenodd"/><path d="M232.5 586.61 232.5 606.613" stroke="#000000" stroke-width="1.33333" stroke-miterlimit="8" fill="none" fill-rule="evenodd"/><path d="M192.5 525.598 214.448 525.598" stroke="#000000" stroke-width="1.33333" stroke-miterlimit="8" fill="none" fill-rule="evenodd"/><path d="M192.5 547.602 214.448 547.602" stroke="#000000" stroke-width="1.33333" stroke-miterlimit="8" fill="none" fill-rule="evenodd"/><text font-family="Calibri,Calibri_MSFontService,sans-serif" font-weight="400" font-size="11" transform="matrix(1 0 0 1.00019 218.226 528)">0</text><text font-family="Calibri,Calibri_MSFontService,sans-serif" font-weight="400" font-size="11" transform="matrix(1 0 0 1.00019 218.226 572)">2</text><path d="M98.5001 568.606 214.644 568.606" stroke="#000000" stroke-width="1.33333" stroke-miterlimit="8" fill="none" fill-rule="evenodd"/><text font-family="Calibri,Calibri_MSFontService,sans-serif" font-weight="400" font-size="11" transform="matrix(1 0 0 1.00019 218.226 548)">1</text><rect x="296.5" y="378.571" width="48" height="99.0185" stroke="#000000" stroke-width="1.33333" stroke-miterlimit="8" fill="#F2F2F2"/><text font-family="Calibri,Calibri_MSFontService,sans-serif" font-weight="400" font-size="11" transform="matrix(1 0 0 1.00019 314.394 390)">En</text><text font-family="Calibri,Calibri_MSFontService,sans-serif" font-weight="400" font-size="19" transform="matrix(-1.83697e-16 -1.00037 0.999813 -1.83731e-16 324.547 447)">Data</text><text font-family="Calibri,Calibri_MSFontService,sans-serif" font-weight="400" font-size="19" transform="matrix(-1.83697e-16 -1.00037 0.999813 -1.83731e-16 324.547 573)">Address</text><text font-family="Calibri,Calibri_MSFontService,sans-serif" font-weight="400" font-size="11" transform="matrix(1 0 0 1.00019 314.394 593)">En</text><path d="M0 0.000126859 30.0492 57.9999 39.7527 57.9999 39.7526 58 65.9508 58 96 0.000190288 87.1771 0.000190288 87.1771 0 69.9292 0 69.9292 0.000190288 69.8018 0.000190288 65.1335 9.01093 54.7077 27.5192 40.8865 27.5192 35.5178 17.9885 26.1982 0.000126859 25.568 0.000126859 25.568 0 8.32013 0 8.32013 0.000126859Z" stroke="#172C51" stroke-width="1.33333" stroke-miterlimit="8" fill="#E7E6E6" fill-rule="evenodd" transform="matrix(6.12323e-17 1.00019 1 -6.12438e-17 620.5 393.574)"/><path d="M529.5 409.577 620.405 409.577" stroke="#000000" stroke-width="1.33333" stroke-miterlimit="8" fill="none" fill-rule="evenodd"/><path d="M529.5 474.589 620.405 474.589" stroke="#000000" stroke-width="1.33333" stroke-miterlimit="8" fill="none" fill-rule="evenodd"/><text font-family="Calibri,Calibri_MSFontService,sans-serif" font-weight="400" font-size="11" transform="matrix(1 0 0 1.00019 505.664 414)">Op1</text><text font-family="Calibri,Calibri_MSFontService,sans-serif" font-weight="400" font-size="11" transform="matrix(1 0 0 1.00019 505.664 477)">Op2</text><path d="M802.5 422.579 837.5 431.331 837.5 498.843 802.5 507.595Z" stroke="#000000" stroke-width="1.33358" stroke-miterlimit="8" fill="#F2F2F2" fill-rule="evenodd"/><path d="M837 464.087 1075.45 464.087" stroke="#000000" stroke-width="6" stroke-miterlimit="8" fill="none" fill-rule="evenodd"/><path d="M819.5 407.576 819.5 427.58" stroke="#000000" stroke-width="1.33333" stroke-miterlimit="8" fill="none" fill-rule="evenodd"/><path d="M678.5 442.583 801.91 442.583" stroke="#000000" stroke-width="1.33333" stroke-miterlimit="8" fill="none" fill-rule="evenodd"/><text font-family="Calibri,Calibri_MSFontService,sans-serif" font-weight="400" font-size="11" transform="matrix(1 0 0 1.00019 805.555 446)">0</text><text font-family="Calibri,Calibri_MSFontService,sans-serif" font-weight="400" font-size="11" transform="matrix(1 0 0 1.00019 805.555 489)">1</text><path d="M0 0 136.224 0 136.224 29.9227 272.449 29.9227" stroke="#000000" stroke-width="1.33333" stroke-miterlimit="8" fill="none" fill-rule="evenodd" transform="matrix(1 0 0 -1.00019 529.5 516.519)"/><text font-family="Calibri,Calibri_MSFontService,sans-serif" font-weight="400" font-size="11" transform="matrix(1 0 0 1.00019 492.351 520)">RdData</text><rect x="603.5" y="318.56" width="100" height="48.009" stroke="#000000" stroke-width="1.33358" stroke-miterlimit="8" fill="#F2F2F2"/><text font-family="Calibri,Calibri_MSFontService,sans-serif" font-weight="400" font-size="11" transform="matrix(6.12323e-17 1.00037 -0.999813 6.12438e-17 691.197 337)">En</text><text font-family="Calibri,Calibri_MSFontService,sans-serif" font-weight="400" font-size="19" transform="matrix(1 0 0 1.00019 635.747 347)">func</text><path d="M716.5 442.583 716.5 799.087" stroke="#C55A11" stroke-width="1.33333" stroke-miterlimit="8" fill="none" fill-rule="evenodd"/><path d="M0 0 600 0.000104987" stroke="#C55A11" stroke-width="1.33333" stroke-miterlimit="8" fill="none" fill-rule="evenodd" transform="matrix(-1 0 0 1.00019 717.5 799.649)"/><path d="M0 0 0.000104987 424.234" stroke="#C55A11" stroke-width="1.33333" stroke-miterlimit="8" fill="none" fill-rule="evenodd" transform="matrix(1 0 0 -1.00019 117.5 800.884)"/><rect x="1066.5" y="134.525" width="124" height="117.022" stroke="#000000" stroke-width="1.33333" stroke-miterlimit="8" fill="#E7E6E6"/><text font-family="Calibri,Calibri_MSFontService,sans-serif" font-weight="400" font-size="28" transform="matrix(1 0 0 1.00019 1114.07 203)">Rx</text><text font-family="Calibri,Calibri_MSFontService,sans-serif" font-weight="400" font-size="15" transform="matrix(1 0 0 1.00019 1075.8 163)">data</text><text font-family="Calibri,Calibri_MSFontService,sans-serif" font-weight="400" font-size="15" transform="matrix(1 0 0 1.00019 1075.8 230)">rx_interrupt</text><path d="M0 0 976.341 0.000104987" stroke="#FF0000" stroke-width="8" stroke-miterlimit="8" fill="none" fill-rule="evenodd" transform="matrix(-1 0 0 1.00019 1066.34 158.029)"/><path d="M147.5 156.529 147.5 420.277" stroke="#FF0000" stroke-width="1.33333" stroke-miterlimit="8" fill="none" fill-rule="evenodd"/><path d="M98.5001 157.529 98.5002 568.999" stroke="#FF0000" stroke-width="1.33333" stroke-miterlimit="8" fill="none" fill-rule="evenodd"/><path d="M654.5 157.529 654.5 318.479" stroke="#FF0000" stroke-width="1.33333" stroke-miterlimit="8" fill="none" fill-rule="evenodd"/><path d="M0 0 1044.6 0.000104987" stroke="#4472C4" stroke-width="3" stroke-miterlimit="8" fill="none" fill-rule="evenodd" transform="matrix(-1 0 0 1.00019 1067.1 223.542)"/><path d="M820.5 223.542 820.5 334.747" stroke="#4472C4" stroke-width="0.666667" stroke-miterlimit="8" fill="none" fill-rule="evenodd"/><path d="M48.5001 223.542 48.5002 706.287" stroke="#4472C4" stroke-width="0.666667" stroke-miterlimit="8" fill="none" fill-rule="evenodd"/><path d="M48.5001 706.632 311.656 706.632" stroke="#4472C4" stroke-width="0.666667" stroke-miterlimit="8" fill="none" fill-rule="evenodd"/><text font-family="Calibri,Calibri_MSFontService,sans-serif" font-weight="400" font-size="9" transform="matrix(1 0 0 1.00019 824.423 356)">Load Function</text><text font-family="Calibri,Calibri_MSFontService,sans-serif" font-weight="400" font-size="9" transform="matrix(1 0 0 1.00019 325.168 264)">Load Data</text><text font-family="Calibri,Calibri_MSFontService,sans-serif" font-weight="400" font-size="9" transform="matrix(1 0 0 1.00019 325.168 722)">Load Address</text><text font-family="Calibri,Calibri_MSFontService,sans-serif" font-weight="400" font-size="11" transform="matrix(1 0 0 1.00019 167.177 529)">4’b0</text><text font-family="Calibri,Calibri_MSFontService,sans-serif" font-weight="400" font-size="11" transform="matrix(1 0 0 1.00019 167.177 551)">4’b1</text><text font-family="Calibri,Calibri_MSFontService,sans-serif" font-weight="400" font-size="9" transform="matrix(1 0 0 1.00019 200.007 625)">Address Source</text><text font-family="Calibri,Calibri_MSFontService,sans-serif" font-weight="400" font-size="9" transform="matrix(1 0 0 1.00019 205.511 327)">Data Source</text><text font-family="Calibri,Calibri_MSFontService,sans-serif" font-weight="400" font-size="9" transform="matrix(1 0 0 1.00019 788.25 399)">Output Source</text><rect x="1066.5" y="441.582" width="124" height="116.022" stroke="#000000" stroke-width="1.33333" stroke-miterlimit="8" fill="#E7E6E6"/><text font-family="Calibri,Calibri_MSFontService,sans-serif" font-weight="400" font-size="28" transform="matrix(1 0 0 1.00019 1115.53 509)">Tx</text><text font-family="Calibri,Calibri_MSFontService,sans-serif" font-weight="400" font-size="15" transform="matrix(1 0 0 1.00019 1075.8 469)">data</text><text font-family="Calibri,Calibri_MSFontService,sans-serif" font-weight="400" font-size="15" transform="matrix(1 0 0 1.00019 1075.8 537)">tx_interrupt</text><path d="M0 0 50.2797 0 50.2797 19.6941 100.559 19.6941" stroke="#000000" stroke-width="1.33333" stroke-miterlimit="8" fill="none" fill-rule="evenodd" transform="matrix(-1 1.22488e-16 1.22465e-16 1.00019 1067.06 535.6)"/><text font-family="Calibri,Calibri_MSFontService,sans-serif" font-weight="400" font-size="9" transform="matrix(1 0 0 1.00019 923.426 558)">Send Data</text><text font-family="Calibri,Calibri_MSFontService,sans-serif" font-weight="700" font-size="59" transform="matrix(1 0 0 1.00019 42.4611 82)">Data Path</text><text font-family="Calibri,Calibri_MSFontService,sans-serif" font-weight="700" font-size="59" transform="matrix(1 0 0 1.00019 1307.43 137)">UART</text><rect x="1063.5" y="743.639" width="306" height="87.0162" stroke="#172C51" stroke-width="1.33333" stroke-miterlimit="8" fill="#FFFFFF"/><text font-family="Calibri,Calibri_MSFontService,sans-serif" font-weight="400" font-size="24" transform="matrix(1 0 0 1.00019 1075.8 773)">Configuration</text><path d="M471.5 563.605 471.5 780.001" stroke="#000000" stroke-width="0.666667" stroke-miterlimit="8" fill="none" fill-rule="evenodd"/><path d="M471.5 780.646 1063.89 780.646" stroke="#000000" stroke-width="0.666667" stroke-miterlimit="8" fill="none" fill-rule="evenodd"/><text font-family="Calibri,Calibri_MSFontService,sans-serif" font-weight="400" font-size="11" transform="matrix(1 0 0 1.00019 447.646 554)">UARTConfig</text></g></svg>